# xmcd
#
# Track frame offsets:
#	150
#	863
#	12869
#	28111
#	32775
#	44756
#	63128
#	64516
#	85410
#	102044
#	116924
#	134609
#	148850
#	164095
#	177590
#	178867
#	196870
#	198221
#	216572
#	231288
#	242417
#	255102
#	267288
#	280523
#	295103
#	305773
#	307071
#	308899
#	310268
#	311412
#	312826
#	314151
#	315578
#	316128
#	316662
#	317278
#	318191
#	318889
#	320186
#	320751
#	321479
#	322032
#	322489
#
# Disc length: 4310 seconds
#
# Revision: 1
# Processed by: cddbd v1.5.2PL0 Copyright (c) Steve Scherf et al.
# Submitted via: audiograbber 1.83.01
#
DISCID=8110d42b
DTITLE=Country Hotdisc - Country Hotdisc 014
DYEAR=2000
DGENRE=Country
TTITLE0=Zydo Billy - Lou Hobbs
TTITLE1=Cowboy Take Me Away - Dixie Chicks
TTITLE2=Cowboy Take Me Away - Alecia Elliott
TTITLE3=I´m Digging It - Paul Overstreet
TTITLE4=Same Old Me - Jonna  Lee Garrett
TTITLE5=Talking About The Song - Cowboy´s Nigthmare
TTITLE6=More Like Your Mamma - Victoria Shaw
TTITLE7=Talking About The Song - Montgomery Gentry
TTITLE8=Daddy Won´t Sell The Farm - Karen Keeley
TTITLE9=Look What You Made Me Do - Tejay Holandes
TTITLE10=Walk Your Boots Outside The Door - Troy Robinson
TTITLE11=Big Ol´ Time - Gene Austin and Nevada
TTITLE12=Make Your Body Move - Veronica Capaldi
TTITLE13=Talking About The Next Song - Veronica Capaldi
TTITLE14=Back To The Honky Tonk - Tom Lambert
TTITLE15=Talking About The Next Song - Tom Lambert
TTITLE16=Honky Tonk And Loving - Poker Alice
TTITLE17=Back For The Good - Frank Jansen
TTITLE18=Wrong State Of Mind - Ragnar
TTITLE19=Did You Miss Me - Cindy Jackson
TTITLE20=The City Crossed A Country Mile - Blueridge
TTITLE21=Died In The Morning Ligth - Gary Roberts
TTITLE22=Spring Is Here - Matt Lucas
TTITLE23=I´m Moving On - Jeri Natchez
TTITLE24=On How They All Got Together - Dana Starr
TTITLE25=On The Compilation With Dixie Chicks - Shauna Pryor
TTITLE26=On Their Musical Style - Joni Lovvorn
TTITLE27=On The Possibillity Of A Major Label - Shauna Pryor
TTITLE28=On The Way Countrymusic Is Going - Jeri Natchez
TTITLE29=Om How Ambitios The Band Are - Jeri Natchez
TTITLE30=On How They All Get On Together - Ramona Gerene
TTITLE31=Spot - Victoria Shaw
TTITLE32=Spot - Victoria Shaw
TTITLE33=Spot - Victoria Shaw
TTITLE34=Spot - Victoria Shaw
TTITLE35=Spot - Victoria Shaw
TTITLE36=Spot - Cowboy´s Nigthmare
TTITLE37=Spot - Cowboy´s Nigthmare
TTITLE38=Spot - Cowboy´s Nigthmare
TTITLE39=Spot - Veronica Capaldi
TTITLE40=Spot - Frank Jansen
TTITLE41=Waikiki Cowboy - Frank Jansen
TTITLE42=Palle IB - Victoria Shaw
EXTD=
EXTT0=
EXTT1=
EXTT2=
EXTT3=
EXTT4=
EXTT5=
EXTT6=
EXTT7=
EXTT8=
EXTT9=
EXTT10=
EXTT11=
EXTT12=
EXTT13=
EXTT14=
EXTT15=
EXTT16=
EXTT17=
EXTT18=
EXTT19=
EXTT20=
EXTT21=
EXTT22=
EXTT23=
EXTT24=
EXTT25=
EXTT26=
EXTT27=
EXTT28=
EXTT29=
EXTT30=
EXTT31=
EXTT32=
EXTT33=
EXTT34=
EXTT35=
EXTT36=
EXTT37=
EXTT38=
EXTT39=
EXTT40=
EXTT41=
EXTT42=
PLAYORDER=
